<?xml version="1.0" standalone="no"?>
<!DOCTYPE svg PUBLIC "-//W3C//DTD SVG 20010904//EN"
 "http://www.w3.org/TR/2001/REC-SVG-20010904/DTD/svg10.dtd">
<svg version="1.0" xmlns="http://www.w3.org/2000/svg"
 width="256.000000pt" height="256.000000pt" viewBox="0 0 256.000000 256.000000"
 preserveAspectRatio="xMidYMid meet">
<metadata>
Created by potrace 1.14, written by Peter Selinger 2001-2017
</metadata>
<g transform="translate(0.000000,256.000000) scale(0.100000,-0.100000)"
fill="#000000" stroke="none">
<path d="M563 2452 l-21 -3 0 -1050 0 -1050 122 3 121 3 3 59 c3 52 1 58 -14
52 -15 -6 -15 -4 -3 10 8 10 15 12 17 5 2 -6 29 -11 64 -11 l60 0 -4 69 c-2
41 0 67 6 64 5 -3 26 -6 48 -5 81 1 75 -4 74 64 l-1 62 58 3 57 3 1 -32 c1
-18 1 -77 1 -131 -1 -84 2 -97 16 -98 9 -1 40 -2 67 -3 l50 -1 1 -105 c1 -58
2 -110 3 -115 1 -6 25 -10 56 -9 l55 1 0 -63 c0 -44 4 -64 13 -65 45 -4 230
-3 236 1 4 3 8 30 9 60 0 30 1 57 1 60 1 3 20 6 44 7 23 0 49 1 57 2 12 1 15
21 15 116 l0 115 -57 0 c-39 0 -58 4 -59 13 0 6 -1 64 -2 127 l-2 115 -58 1
c-41 0 -60 -4 -66 -14 -7 -12 -10 -12 -16 -1 -5 7 -4 14 3 17 7 2 12 26 12 60
l0 57 242 0 243 0 1 122 2 123 -54 0 -54 0 -1 48 c-1 26 -1 53 0 60 1 8 -16
12 -59 12 -69 0 -72 4 -74 78 l-1 47 -57 3 c-36 2 -58 8 -59 15 -1 7 -1 36 0
65 l1 54 -68 -4 -67 -3 0 60 0 60 -57 -3 -57 -2 -3 67 -3 67 -60 2 c-33 0 -62
-3 -65 -7 -3 -5 -4 21 -2 56 l4 65 -61 0 c-39 0 -60 -4 -56 -10 3 -5 2 -10 -3
-10 -5 0 -9 28 -8 63 1 34 0 68 -2 75 -6 19 -112 17 -112 -3 0 -9 -6 -12 -15
-9 -19 8 -20 24 -1 24 13 0 14 21 7 107 -1 8 -19 11 -54 11 -72 -2 -79 4 -74
62 3 26 2 52 -2 58 -4 6 -28 11 -53 10 -25 0 -50 2 -55 5 -5 3 -7 27 -6 53 2
26 -2 51 -7 54 -5 3 -34 5 -65 4 -61 -2 -57 -7 -57 79 -1 26 -4 47 -7 48 -24
3 -70 3 -88 1z m227 -263 c0 -17 -3 -18 -20 -7 -11 7 -20 15 -20 18 0 3 9 6
20 7 14 1 20 -4 20 -18z"/>
</g>
</svg>
